<?xml version="1.0" standalone="no"?>
<!DOCTYPE svg PUBLIC "-//W3C//DTD SVG 20010904//EN"
 "http://www.w3.org/TR/2001/REC-SVG-20010904/DTD/svg10.dtd">
<svg version="1.0" xmlns="http://www.w3.org/2000/svg"
 width="2000.000000pt" height="2000.000000pt" viewBox="0 0 2000.000000 2000.000000"
 preserveAspectRatio="xMidYMid meet">
<metadata>
Created by potrace 1.14, written by Peter Selinger 2001-2017
</metadata>
<g transform="translate(0.000000,2000.000000) scale(0.100000,-0.100000)"
fill="#000000" stroke="none">
<path d="M9145 15690 c-27 -4 -66 -10 -85 -13 -19 -3 -55 -9 -80 -12 -24 -4
-48 -9 -52 -11 -4 -3 -18 -7 -29 -9 -166 -32 -438 -151 -641 -280 -114 -73
-245 -182 -408 -341 -129 -126 -196 -188 -270 -247 -37 -30 -130 -88 -166
-103 -100 -42 -196 -51 -409 -39 -229 13 -456 2 -660 -31 -133 -22 -390 -84
-427 -105 -10 -5 -24 -9 -31 -9 -11 0 -128 -43 -197 -73 -14 -6 -27 -11 -30
-12 -80 -27 -463 -233 -490 -264 -3 -3 -34 -26 -70 -50 -390 -268 -760 -710
-974 -1166 -119 -254 -226 -609 -252 -840 -3 -33 -8 -62 -9 -65 -24 -43 -25
-640 -1 -750 3 -14 7 -43 10 -65 3 -22 8 -51 11 -65 3 -14 7 -42 10 -64 3 -21
7 -41 10 -45 2 -4 7 -23 10 -42 6 -37 33 -145 41 -169 3 -8 6 -17 6 -20 0 -3
21 -63 45 -135 111 -319 248 -570 480 -878 122 -161 139 -194 117 -225 -13
-19 -77 -46 -134 -56 -14 -2 -32 -7 -40 -10 -8 -3 -28 -7 -45 -10 -16 -2 -131
-25 -255 -50 -124 -26 -241 -48 -260 -51 -19 -2 -48 -6 -65 -9 -27 -4 -113
-12 -220 -22 -22 -1 -132 -6 -245 -9 -253 -6 -410 -14 -430 -20 -8 -2 -28 -7
-45 -9 -69 -12 -125 -65 -120 -111 10 -79 37 -134 102 -199 26 -27 66 -60 88
-75 22 -14 42 -29 45 -32 16 -21 280 -132 341 -144 9 -2 34 -8 55 -14 40 -12
206 -45 279 -56 155 -24 357 -37 562 -36 185 0 183 3 114 -134 -49 -97 -202
-340 -249 -395 -11 -14 -44 -53 -73 -88 -218 -269 -503 -452 -787 -506 -71
-13 -292 -16 -338 -3 -12 3 -37 8 -56 11 -69 11 -201 58 -297 107 -297 149
-597 449 -806 804 -57 97 -65 111 -120 223 -82 167 -200 470 -219 561 -2 9 -5
23 -8 31 -12 33 -33 115 -44 170 -3 14 -8 34 -11 45 -3 11 -7 29 -9 40 -2 11
-5 31 -8 45 -5 22 -9 41 -22 115 -56 310 -71 713 -39 1060 19 206 40 259 145
358 43 40 71 77 92 124 81 173 8 272 -227 309 -33 5 -257 5 -300 0 -37 -4 -45
-1 -95 45 -330 297 -637 346 -789 125 -49 -71 -72 -165 -67 -281 1 -55 8 -118
14 -140 6 -23 14 -182 18 -370 3 -181 7 -355 9 -385 4 -85 15 -260 21 -314 3
-27 7 -77 9 -110 6 -70 12 -133 19 -191 3 -22 8 -67 11 -100 4 -33 9 -73 11
-90 3 -16 7 -43 10 -60 4 -37 14 -101 21 -140 3 -16 6 -46 8 -65 1 -19 5 -44
8 -55 4 -11 9 -33 12 -50 2 -16 7 -40 9 -51 2 -12 7 -37 10 -55 3 -19 13 -68
22 -109 9 -41 17 -84 19 -95 2 -11 13 -58 25 -105 11 -47 22 -92 24 -100 2 -8
9 -35 16 -60 7 -25 14 -52 15 -60 19 -90 170 -539 210 -625 8 -16 29 -64 46
-105 91 -216 222 -460 347 -650 42 -63 79 -117 82 -120 3 -3 32 -41 65 -85
146 -197 348 -401 545 -553 30 -23 60 -46 66 -52 21 -16 158 -106 174 -113 8
-4 33 -18 55 -32 38 -24 197 -104 275 -138 129 -57 375 -128 565 -162 181 -33
547 -38 760 -9 22 3 54 7 70 9 17 2 30 4 30 5 0 1 15 3 33 6 18 2 83 15 145
30 62 14 120 27 130 29 9 2 21 6 25 9 5 3 19 7 33 10 23 4 220 71 284 96 17 6
31 11 32 11 17 -2 396 187 466 232 31 20 60 37 63 37 19 0 358 242 474 339
107 90 137 118 301 281 258 257 496 556 664 835 27 44 51 82 55 85 6 4 25 40
129 232 16 31 35 65 40 75 6 10 35 71 65 135 30 64 63 121 73 126 10 6 45 8
78 6 33 -1 79 -3 101 -4 56 0 55 2 68 -185 3 -44 8 -111 12 -150 3 -38 7 -106
9 -150 2 -44 4 -80 5 -80 1 0 3 -20 5 -45 1 -25 6 -90 10 -145 7 -98 8 -121
19 -280 3 -44 8 -107 11 -139 2 -33 7 -107 11 -165 4 -58 8 -122 9 -141 3 -33
9 -116 20 -280 2 -41 7 -102 9 -135 3 -33 8 -100 12 -150 4 -49 8 -106 9 -125
2 -19 6 -82 9 -140 3 -58 8 -125 11 -150 3 -25 7 -83 10 -130 2 -47 7 -119 10
-160 3 -41 8 -102 10 -135 4 -72 14 -207 20 -290 6 -68 13 -177 20 -275 4 -64
15 -216 20 -275 19 -243 151 -456 345 -555 100 -52 155 -55 805 -54 330 1 620
5 643 8 94 14 205 67 288 139 56 48 144 181 160 242 2 6 10 29 18 52 23 61 24
106 27 668 2 281 6 524 10 540 4 17 8 23 9 15 1 -8 3 -24 5 -35 10 -50 20
-150 30 -285 2 -36 5 -65 5 -65 0 0 3 -27 5 -60 7 -102 19 -278 29 -420 11
-148 16 -187 27 -244 13 -65 61 -180 97 -234 15 -22 33 -49 41 -61 27 -41 127
-118 196 -151 41 -20 100 -38 140 -44 45 -7 299 -10 700 -8 l630 3 70 27 c195
77 322 223 376 429 19 76 20 172 4 958 -19 951 -19 920 -6 933 5 5 100 11 210
13 193 4 201 3 211 -16 11 -21 16 -91 25 -365 5 -155 11 -328 21 -570 3 -77 7
-194 9 -260 19 -579 21 -609 53 -715 55 -188 228 -368 387 -405 11 -2 36 -8
56 -13 40 -10 1310 -9 1350 1 193 49 339 181 416 377 39 99 41 123 46 760 4
399 10 480 34 435 11 -20 39 -148 47 -215 3 -19 7 -52 10 -72 10 -62 14 -99
21 -173 4 -38 9 -78 11 -87 1 -9 6 -48 9 -85 4 -37 8 -75 10 -83 2 -8 7 -46
10 -85 4 -38 8 -81 10 -95 5 -30 11 -81 20 -170 4 -36 11 -72 15 -80 4 -8 8
-18 8 -23 2 -47 55 -173 103 -243 72 -105 178 -188 289 -226 72 -25 190 -29
475 -15 77 4 190 9 250 11 61 3 164 7 230 10 66 3 176 8 245 11 169 6 214 13
287 40 176 66 307 217 362 414 18 65 20 94 16 274 -3 111 -7 240 -9 287 -3 47
-7 144 -11 215 -3 72 -8 180 -11 240 -3 61 -7 155 -9 210 -5 128 -14 336 -19
445 -3 47 -7 153 -11 235 -3 83 -8 186 -10 230 -11 223 -17 402 -17 515 -1
129 11 417 17 451 2 10 6 54 10 97 3 42 7 88 10 102 2 14 7 45 10 70 3 25 7
56 10 70 3 14 8 45 11 70 3 25 7 52 9 60 3 8 7 33 10 55 3 22 10 60 15 85 5
25 12 56 14 70 7 37 25 131 32 160 11 55 36 176 39 195 1 11 10 63 19 115 9
52 18 106 20 120 3 14 7 44 10 67 3 22 7 52 10 65 3 12 8 43 10 68 17 141 24
202 25 208 1 2 76 -45 96 -61 22 -17 143 -95 190 -122 28 -16 52 -32 55 -35 5
-7 99 -59 220 -122 128 -67 202 -119 276 -194 57 -57 81 -91 114 -160 128
-273 181 -354 325 -499 188 -188 477 -333 755 -380 19 -3 42 -8 50 -10 70 -19
477 -28 591 -12 92 13 103 16 117 34 11 16 9 22 -20 46 -18 16 -49 37 -69 47
-55 29 -136 95 -229 189 -126 127 -211 244 -273 372 -129 271 -149 310 -179
353 -96 139 -191 242 -303 327 -75 57 -211 114 -325 135 -14 2 -38 7 -55 10
-61 11 -142 39 -195 68 -49 26 -116 71 -130 86 -3 4 -23 19 -44 36 -22 16 -49
38 -61 49 -11 11 -50 45 -85 75 -111 94 -354 342 -448 455 -18 22 -44 54 -58
70 -28 34 -184 262 -184 270 0 2 -16 29 -35 60 -20 30 -39 63 -42 73 -4 9 -16
33 -28 52 -12 19 -59 107 -105 195 -205 395 -291 549 -393 700 -108 162 -138
196 -337 395 -437 438 -973 749 -1620 942 -36 10 -76 22 -90 25 -35 7 -43 9
-60 16 -35 13 -296 71 -415 92 -16 2 -55 9 -85 15 -30 5 -72 12 -92 15 -78 11
-114 16 -138 20 -14 2 -50 7 -80 9 -30 3 -68 8 -85 10 -16 2 -59 7 -95 10 -36
4 -85 8 -110 11 -92 9 -278 21 -500 31 -58 3 -349 7 -647 9 -634 5 -575 17
-565 -118 8 -117 8 -476 -1 -582 -8 -93 -22 -200 -43 -328 -17 -104 -55 -261
-91 -372 -14 -44 -27 -87 -29 -95 -5 -22 -96 -274 -128 -355 -55 -139 -175
-372 -247 -480 -69 -103 -232 -280 -316 -341 -76 -57 -216 -119 -308 -138 -16
-4 -41 -9 -55 -12 -61 -12 -155 -16 -440 -16 -299 0 -365 -5 -535 -42 -45 -10
-163 -35 -190 -41 -17 -3 -82 -8 -145 -11 -109 -4 -180 6 -180 26 0 17 53 49
113 69 63 21 262 70 307 75 14 2 39 6 55 9 17 4 44 9 60 12 17 3 41 7 55 10
131 26 206 29 595 25 127 -1 234 4 285 15 14 3 40 8 59 11 203 39 428 239 594
530 45 77 157 305 162 328 1 6 8 25 14 41 27 64 100 264 124 340 29 90 82 293
91 350 2 11 11 58 19 105 9 47 18 110 22 140 3 30 8 66 10 80 16 95 22 441 11
590 -13 163 -28 295 -41 340 -2 8 -7 35 -10 60 -16 115 -94 396 -151 544 -160
411 -355 718 -634 996 -173 173 -327 294 -485 380 -33 18 -78 43 -100 54 -93
51 -272 119 -395 151 -70 18 -77 20 -160 35 -30 6 -66 13 -80 16 -38 9 -419
12 -475 4z"/>
</g>
</svg>
